<svg width="11" height="16" viewBox="0 0 11 16" fill="none" xmlns="http://www.w3.org/2000/svg">
<path opacity="0.4" d="M9.80426 13.6683C9.96897 13.833 10.0615 14.0564 10.0615 14.2894C10.0615 14.5223 9.96897 14.7457 9.80426 14.9104L8.97101 15.7419C8.8058 15.9071 8.58173 15.9999 8.3481 15.9999C8.11446 15.9999 7.89039 15.9071 7.72518 15.7419L2.06094 10.089L4.14516 8.00073L9.80426 13.6683Z" fill="white"/>
<path d="M8.96953 0.258009L9.80277 1.08942C9.96748 1.25415 10.06 1.47756 10.06 1.7105C10.06 1.94345 9.96748 2.16686 9.80277 2.33158L2.05871 10.0896L0.590429 8.62132C0.425812 8.45654 0.333344 8.23316 0.333344 8.00024C0.333344 7.76732 0.425812 7.54393 0.590429 7.37916L7.72369 0.258009C7.8889 0.092808 8.11297 0 8.34661 0C8.58025 0 8.80431 0.092808 8.96953 0.258009Z" fill="white"/>
</svg>
